<?xml version="1.0" encoding="utf-8"?>
<!-- Generator: Adobe Illustrator 25.1.0, SVG Export Plug-In . SVG Version: 6.00 Build 0)  -->
<svg version="1.1" xmlns="http://www.w3.org/2000/svg" xmlns:xlink="http://www.w3.org/1999/xlink" x="0px" y="0px"
	 viewBox="0 0 355.5 251.3" style="enable-background:new 0 0 355.5 251.3;" xml:space="preserve">
<style type="text/css">
	.st0{fill:#198754;}
	.st1{fill:#FFFFFF;}
	.st2{opacity:0.7;fill:#0C5B33;}
	.st3{fill:#1E2120;}
</style>
<g id="BACKGROUND">
</g>
<g id="OBJECTS">
	<g>
		<g>
			<path class="st0" d="M291.1,101.3c-9.2-34.6-40.7-60.2-78.2-60.2c-24.6,0-46.7,11-61.5,28.4C135.9,87.6,112.7,97,88.9,96.2
				c-0.3,0-0.6,0-0.9,0c-28.4-0.5-52.8,22.1-54.3,50.5c-1.6,30.8,22.9,56.3,53.3,56.3c6.7,0,13-1.2,18.9-3.5
				c25.7-9.8,54.3-10.3,80.2-1.1c8.4,3,17.5,4.6,26.9,4.6c10.9,0,21.3-2.2,30.8-6.1c8,4.2,17.2,6.4,26.9,6
				c28.6-1.2,51.6-25.6,51.1-54.2C321.4,127.7,309,109.7,291.1,101.3z"/>
			<g>
				<path class="st1" d="M72.1,109.3c-5.4,1.4-10.5,4.2-14.6,8c-4.2,3.8-7.4,8.6-9.3,13.8c-1.9,5.2-2.4,11-0.9,16.2
					c2-5,4.1-9.4,6.7-13.4c2.6-4,5.6-7.5,9-10.6c3.4-3.1,7.2-5.8,11.4-8c4.2-2.3,8.8-3.9,13.9-5.5C83.2,108,77.5,108,72.1,109.3z"/>
				<path class="st1" d="M187.1,56.5c-8.4,2.7-16.3,7.3-22.8,13.4c-1.6,1.6-3.2,3.1-4.6,4.8l-4,4.7c-2.7,3-5.6,5.8-8.5,8.6
					c-6,5.5-12.7,10.3-19.8,15.1c8.4-1.6,16.6-5.1,23.8-10c3.7-2.4,7.1-5.2,10.2-8.3c1.5-1.5,3.1-3.3,4.5-4.7
					c1.3-1.5,2.7-2.9,4.2-4.2c5.8-5.4,12.4-9.9,19.6-13.5c7.3-3.5,15.1-5.9,23.5-7.7C204.5,53.1,195.5,53.8,187.1,56.5z"/>
			</g>
			<path class="st0" d="M270.6,202.8c-9.8,0.4-18.9-1.8-26.9-6c-9.5,3.9-19.9,6.1-30.8,6.1c-9.4,0-18.5-1.6-26.9-4.6
				c-25.9-9.1-54.5-8.6-80.2,1.1c-5.9,2.2-12.2,3.5-18.9,3.5c-4.2,0-8.3-0.5-12.2-1.5l5.7,37h194.5l5.7-37
				C277.4,202.2,274.1,202.7,270.6,202.8z"/>
			<path class="st2" d="M86.9,202.9c6.7,0,13-1.2,18.9-3.5c25.7-9.8,54.3-10.3,80.2-1.1c8.4,3,17.5,4.6,26.9,4.6
				c10.9,0,21.3-2.2,30.8-6.1c8,4.2,17.2,6.4,26.9,6c28.6-1.2,51.6-25.6,51.1-54.2c-0.3-21-12.8-38.9-30.6-47.3
				c-0.1-0.6-0.4-1.1-0.5-1.7c-5.1-0.5-10.2-0.8-15.3-0.8c-9.4,0-18.7,2.5-26.8,7.1l-9.3,5.3c0,0,49.4-0.9,52.5,32.9
				c3.8,41-23.1,38.3-23.1,38.3l10.7-20.5c0,0-32.5,24.5-60,24c-27.6-0.4-42.3-15.6-71.2-11.6l8-22.7c0,0-23.1,32.9-50.7,32.9
				c0,0-33.6,11.3-56-11.1c-12.4-12.4-14.9-25.1-14.7-34.1c-0.5,2.4-0.8,4.8-1,7.2C32,177.4,56.5,202.9,86.9,202.9z"/>
			<path class="st2" d="M270.6,202.8c-9.8,0.4-18.9-1.8-26.9-6c-9.5,3.9-19.9,6.1-30.8,6.1c-9.4,0-18.5-1.6-26.9-4.6
				c-25.9-9.1-54.5-8.6-80.2,1.1c-5.9,2.2-12.2,3.5-18.9,3.5c-4.2,0-8.3-0.5-12.2-1.5l2.4,15.6c3.2,0.6,6.5,1,9.8,1
				c7,0,13.7-1.3,19.8-3.8c25.3-10.1,53.6-9.9,79.3-0.8c6.1,2.1,12.5,3.5,19.1,4.2v3h-46.9c-2.3,0-4.1,1.8-4.1,4.1
				c0,2.3,1.8,4.1,4.1,4.1h37.7c5.1,0,9.2,4.1,9.2,9.2l0,0h69.8l1.4-9.2l1.2-8.1l0.5-3.6c0,0,0.1,0,0.1,0l2.4-15.6
				C277.4,202.2,274.1,202.7,270.6,202.8z"/>
			<path class="st2" d="M290.6,99.5c-8.7-30-34.2-52.8-65.6-57.5l0.5,1c0,0,40.9,16.9,40.9,54.6C266.4,97.6,277.3,97.1,290.6,99.5z"
				/>
			<path d="M325.9,148.5c-0.3-21.4-12.3-40.4-31.3-50.1C284.2,62.2,250.8,37,212.9,37c-24.9,0-48.4,10.9-64.6,29.8
				C133.9,83.7,112.2,92.9,89,92.1l-1,0c-30.6-0.6-56.9,23.8-58.5,54.4c-0.8,16,4.7,31.1,15.7,42.7c7.2,7.6,16.1,12.9,25.8,15.7
				l5.8,37.8h201.5l5.8-37.9C308.5,197.6,326.3,174.8,325.9,148.5z M275.7,206.5l-1.4,9.2H158.2c-2.3,0-4.1,1.8-4.1,4.1
				c0,2.3,1.8,4.1,4.1,4.1H273l-1.6,10.5H83.9l-4.3-27.9c0.1,0,0.2,0,0.4,0c0.7,0.1,1.4,0.2,2.1,0.2c3.4,0.3,6.7,0.3,10,0
				c0.1,0,0.2,0,0.2,0c3.3-0.3,6.5-0.9,9.7-1.8c0.3-0.1,0.6-0.2,0.8-0.2c1.4-0.4,2.8-0.9,4.2-1.4c4.3-1.1,8.2-2.3,11.8-3.8
				c21.8-5.7,44.8-4.9,65.9,2.6c9.1,3.2,18.6,4.8,28.3,4.8c10.5,0,20.8-1.9,30.6-5.7c2.1,1,4.3,1.9,6.5,2.7c5.6,1.9,11.4,2.9,17.2,3
				c1.2,0,2.3,0,3.5,0c0,0,0.1,0,0.1,0C272.5,206.8,274.1,206.7,275.7,206.5z M280.6,197.2l-0.9,0.2c-1.5,0.4-3.1,0.7-4.6,0.9
				c-1.5,0.2-3,0.4-4.6,0.4h0c-5.4,0.2-10.8-0.5-16-2c19.3-10.3,27-29.4,27.4-30.3c0.8-2.1-0.2-4.5-2.3-5.3
				c-2.1-0.8-4.5,0.2-5.3,2.3c-0.1,0.2-8.8,21.5-30.2,28.9l-0.1-0.1l-1.8,0.7c-9.3,3.8-19.1,5.8-29.2,5.8c-8.8,0-17.3-1.5-25.5-4.3
				c-1.6-0.6-3.3-1.1-5-1.6c-0.5-0.2-1-0.3-1.5-0.4c-1.2-0.3-2.3-0.7-3.5-1c-0.6-0.2-1.3-0.3-1.9-0.4c-1.1-0.3-2.1-0.5-3.2-0.7
				c-0.7-0.1-1.4-0.3-2.1-0.4c-1-0.2-2-0.4-3-0.6c-0.7-0.1-1.4-0.2-2.2-0.3c-1-0.1-2-0.3-2.9-0.4c-0.7-0.1-1.5-0.2-2.2-0.2
				c-1-0.1-1.9-0.2-2.9-0.3c-0.8-0.1-1.5-0.1-2.3-0.1c-1-0.1-1.9-0.1-2.9-0.1c-0.8,0-1.6,0-2.4,0c-0.6,0-1.3,0-1.9,0
				c-0.3,0-0.6,0-0.8,0c-1,0-1.9,0-2.9,0.1c-0.8,0-1.7,0-2.5,0.1c-0.8,0-1.5,0.1-2.3,0.1c17.6-14.4,20.1-31.6,20.2-32.6
				c0.3-2.2-1.3-4.3-3.6-4.6c-2.2-0.3-4.3,1.3-4.6,3.6c0,0.3-3.5,24.9-35.1,37.5c-0.4,0.1-0.9,0.2-1.3,0.4c-1.1,0.3-2.3,0.7-3.4,1
				c-0.6,0.2-1.2,0.4-1.8,0.6c-1.7,0.6-3.4,1.2-5.2,1.8c-1.3,0.5-2.6,0.9-3.9,1.3c-0.3,0.1-0.6,0.2-1,0.2c-1.1,0.3-2.1,0.5-3.2,0.7
				c-0.3,0.1-0.6,0.1-0.9,0.2c-1.2,0.2-2.4,0.4-3.6,0.5c-0.2,0-0.4,0-0.6,0.1c-1.4,0.1-2.8,0.2-4.3,0.2c0,0,0,0,0,0
				c-1.4,0-2.8-0.1-4.3-0.2c-0.9-0.1-1.8-0.2-2.6-0.3c-0.4-0.1-0.7-0.1-1.1-0.2c-1.1-0.2-2.2-0.4-3.3-0.6l-0.6-0.1
				c-9-2.2-17.3-6.9-23.9-13.9c-9.4-9.9-14.2-22.9-13.5-36.6c1.4-26.2,23.9-47,50.1-46.6l0.9,0c25.8,0.9,49.8-9.3,65.8-28.1
				c14.6-17.1,35.9-26.9,58.4-26.9c32.3,0,60.9,20.2,71.9,50c-28.3-6.3-48.4,11.3-49.3,12.1c-1.7,1.5-1.8,4.1-0.3,5.8
				c0.8,0.9,1.9,1.4,3.1,1.4c1,0,1.9-0.3,2.7-1c0.9-0.8,21.1-18.3,48.6-8.4c17,8.1,27.8,24.8,28.1,43.6
				C318,171.7,302.1,191.7,280.6,197.2z"/>
		</g>
		<path class="st3" d="M127.9,49.4c-7.9,12.5-23.7,19.5-38.8,19.3c-3.5,0.1-6.9,0.6-10.3,0.8c-3.4,0.7-6.8,1-10.1,2.1
			c-6.7,1.6-13,4.3-19.1,7.5C37.6,85.6,27,94.9,19,106.2C10.7,117.4,5.6,130.7,2.7,145c-0.9-14.5,2.6-29.7,10.4-42.6
			C16.7,95.7,21.8,90,27,84.6c5.5-5.2,11.7-9.7,18.3-13.4c13.4-7,28.8-10.7,43.9-9.5C102.8,63,117,59.2,127.9,49.4z"/>
		<path class="st3" d="M352.7,148.1c-1.4-13.2-5.6-25.9-12.1-36.9c-6.6-11.1-15.6-20.4-26-27.5l-0.9-0.6l-0.5-1.2
			c-5.3-12-12.5-23.2-21.4-32.8c-8.9-9.7-19.6-17.5-31.2-23.8c-11.7-6.1-24.4-10.1-37.6-12c-13.2-1.9-26.8-1.6-40.3,1
			c6.4-2.5,13.1-4.2,20-5.2c3.4-0.5,6.9-0.9,10.4-1.2c3.5,0,7-0.2,10.5,0c14,0.7,27.9,4.1,40.7,10.2c12.8,6,24.4,14.6,34.1,24.9
			c9.5,10.5,17.3,22.7,22.3,35.9l-1.4-1.8c11.2,8.1,20.3,19.1,26.1,31.5C351.1,121.1,353.7,134.8,352.7,148.1z"/>
	</g>
</g>
</svg>
