<?xml version="1.0" encoding="utf-8"?>
<!-- Generator: Adobe Illustrator 25.1.0, SVG Export Plug-In . SVG Version: 6.00 Build 0)  -->
<svg version="1.1" xmlns="http://www.w3.org/2000/svg" xmlns:xlink="http://www.w3.org/1999/xlink" x="0px" y="0px"
	 viewBox="0 0 288 155.5" style="enable-background:new 0 0 288 155.5;" xml:space="preserve">
<style type="text/css">
	.st0{fill:#198754;}
	.st1{fill:#FFFFFF;}
	.st2{opacity:0.7;fill:#0C5B33;}
	.st3{fill:#1E2120;}
	.st4{fill:#1C1C1C;}
	.st5{font-family:'Lobster1.3';}
	.st6{font-size:72.2079px;}
</style>
<g id="BACKGROUND">
</g>
<g id="OBJECTS">
	<g>
		<g>
			<g>
				<path class="st0" d="M144.5,32.6c-2.9-10.9-12.8-18.9-24.5-18.9c-7.7,0-14.6,3.4-19.3,8.9c-4.9,5.7-12.1,8.6-19.6,8.4
					c-0.1,0-0.2,0-0.3,0c-8.9-0.2-16.5,6.9-17,15.8c-0.5,9.6,7.2,17.6,16.7,17.6c2.1,0,4.1-0.4,5.9-1.1c8.1-3.1,17-3.2,25.1-0.4
					c2.6,0.9,5.5,1.4,8.4,1.4c3.4,0,6.7-0.7,9.6-1.9c2.5,1.3,5.4,2,8.4,1.9c9-0.4,16.2-8,16-17C154,40.9,150.1,35.2,144.5,32.6z"/>
				<g>
					<path class="st1" d="M75.9,35.1c-1.7,0.4-3.3,1.3-4.6,2.5C70,38.8,69,40.3,68.4,42c-0.6,1.6-0.7,3.4-0.3,5.1
						c0.6-1.6,1.3-2.9,2.1-4.2c0.8-1.2,1.8-2.3,2.8-3.3c1.1-1,2.3-1.8,3.6-2.5c1.3-0.7,2.7-1.2,4.4-1.7
						C79.4,34.7,77.6,34.7,75.9,35.1z"/>
					<path class="st1" d="M111.9,18.6c-2.6,0.8-5.1,2.3-7.2,4.2c-0.5,0.5-1,1-1.4,1.5l-1.3,1.5c-0.8,0.9-1.7,1.8-2.7,2.7
						c-1.9,1.7-4,3.2-6.2,4.7c2.6-0.5,5.2-1.6,7.5-3.1c1.1-0.8,2.2-1.6,3.2-2.6c0.5-0.5,1-1,1.4-1.5c0.4-0.5,0.9-0.9,1.3-1.3
						c1.8-1.7,3.9-3.1,6.1-4.2c2.3-1.1,4.7-1.9,7.4-2.4C117.4,17.5,114.6,17.7,111.9,18.6z"/>
				</g>
				<path class="st0" d="M138.1,64.4c-3.1,0.1-5.9-0.6-8.4-1.9c-3,1.2-6.2,1.9-9.6,1.9c-3,0-5.8-0.5-8.4-1.4
					c-8.1-2.9-17.1-2.7-25.1,0.4c-1.8,0.7-3.8,1.1-5.9,1.1c-1.3,0-2.6-0.2-3.8-0.5l1.8,11.6h61l1.8-11.6
					C140.2,64.2,139.2,64.4,138.1,64.4z"/>
				<path class="st2" d="M80.5,64.4c2.1,0,4.1-0.4,5.9-1.1c8.1-3.1,17-3.2,25.1-0.4c2.6,0.9,5.5,1.4,8.4,1.4c3.4,0,6.7-0.7,9.6-1.9
					c2.5,1.3,5.4,2,8.4,1.9c9-0.4,16.2-8,16-17c-0.1-6.6-4-12.2-9.6-14.8c0-0.2-0.1-0.3-0.2-0.5c-1.6-0.2-3.2-0.2-4.8-0.2
					c-3,0-5.8,0.8-8.4,2.2l-2.9,1.7c0,0,15.5-0.3,16.4,10.3c1.2,12.8-7.2,12-7.2,12l3.3-6.4c0,0-10.2,7.7-18.8,7.5
					c-8.6-0.1-13.2-4.9-22.3-3.6l2.5-7.1c0,0-7.2,10.3-15.9,10.3c0,0-10.5,3.6-17.6-3.5c-3.9-3.9-4.7-7.9-4.6-10.7
					c-0.1,0.7-0.3,1.5-0.3,2.3C63.3,56.4,71,64.4,80.5,64.4z"/>
				<path class="st2" d="M138.1,64.4c-3.1,0.1-5.9-0.6-8.4-1.9c-3,1.2-6.2,1.9-9.6,1.9c-3,0-5.8-0.5-8.4-1.4
					c-8.1-2.9-17.1-2.7-25.1,0.4c-1.8,0.7-3.8,1.1-5.9,1.1c-1.3,0-2.6-0.2-3.8-0.5l0.8,4.9c1,0.2,2,0.3,3.1,0.3
					c2.2,0,4.3-0.4,6.2-1.2c7.9-3.2,16.8-3.1,24.9-0.2c1.9,0.7,3.9,1.1,6,1.3V70h-14.7c-0.7,0-1.3,0.6-1.3,1.3
					c0,0.7,0.6,1.3,1.3,1.3h11.8c1.6,0,2.9,1.3,2.9,2.9l0,0h21.9l0.4-2.9l0.4-2.5l0.2-1.1c0,0,0,0,0,0l0.8-4.9
					C140.2,64.2,139.2,64.4,138.1,64.4z"/>
				<path class="st2" d="M144.4,32c-2.7-9.4-10.7-16.5-20.6-18l0.2,0.3c0,0,12.8,5.3,12.8,17.1C136.8,31.4,140.2,31.3,144.4,32z"/>
				<path d="M155.4,47.4c-0.1-6.7-3.8-12.7-9.8-15.7c-3.3-11.4-13.7-19.2-25.6-19.2c-7.8,0-15.2,3.4-20.2,9.3
					c-4.5,5.3-11.3,8.2-18.6,7.9l-0.3,0c-9.6-0.2-17.8,7.5-18.3,17c-0.3,5,1.5,9.7,4.9,13.4c2.3,2.4,5,4,8.1,4.9l1.8,11.9h63.2
					l1.8-11.9C150,62.8,155.5,55.6,155.4,47.4z M139.7,65.6l-0.4,2.9h-36.4c-0.7,0-1.3,0.6-1.3,1.3c0,0.7,0.6,1.3,1.3,1.3h36
					l-0.5,3.3H79.6l-1.3-8.7c0,0,0.1,0,0.1,0c0.2,0,0.4,0,0.6,0.1c1.1,0.1,2.1,0.1,3.1,0c0,0,0,0,0.1,0c1-0.1,2-0.3,3-0.5
					c0.1,0,0.2,0,0.3-0.1c0.4-0.1,0.9-0.3,1.3-0.4c1.3-0.3,2.6-0.7,3.7-1.2c6.8-1.8,14-1.5,20.7,0.8c2.8,1,5.8,1.5,8.9,1.5
					c3.3,0,6.5-0.6,9.6-1.8c0.7,0.3,1.3,0.6,2,0.8c1.7,0.6,3.6,0.9,5.4,0.9c0.4,0,0.7,0,1.1,0c0,0,0,0,0,0
					C138.7,65.7,139.2,65.6,139.7,65.6z M141.2,62.7l-0.3,0.1c-0.5,0.1-1,0.2-1.4,0.3c-0.5,0.1-1,0.1-1.4,0.1h0
					c-1.7,0.1-3.4-0.1-5-0.6c6.1-3.2,8.5-9.2,8.6-9.5c0.3-0.7-0.1-1.4-0.7-1.7c-0.7-0.3-1.4,0.1-1.7,0.7c0,0.1-2.7,6.7-9.5,9.1l0,0
					l-0.6,0.2c-2.9,1.2-6,1.8-9.2,1.8c-2.7,0-5.4-0.5-8-1.4c-0.5-0.2-1-0.4-1.6-0.5c-0.2,0-0.3-0.1-0.5-0.1
					c-0.4-0.1-0.7-0.2-1.1-0.3c-0.2-0.1-0.4-0.1-0.6-0.1c-0.3-0.1-0.7-0.2-1-0.2c-0.2,0-0.4-0.1-0.6-0.1c-0.3-0.1-0.6-0.1-0.9-0.2
					c-0.2,0-0.5-0.1-0.7-0.1c-0.3,0-0.6-0.1-0.9-0.1c-0.2,0-0.5,0-0.7-0.1c-0.3,0-0.6-0.1-0.9-0.1c-0.2,0-0.5,0-0.7,0
					c-0.3,0-0.6,0-0.9,0c-0.2,0-0.5,0-0.7,0c-0.2,0-0.4,0-0.6,0c-0.1,0-0.2,0-0.3,0c-0.3,0-0.6,0-0.9,0c-0.3,0-0.5,0-0.8,0
					c-0.2,0-0.5,0-0.7,0c5.5-4.5,6.3-9.9,6.3-10.2c0.1-0.7-0.4-1.3-1.1-1.4c-0.7-0.1-1.3,0.4-1.4,1.1c0,0.1-1.1,7.8-11,11.8
					c-0.1,0-0.3,0.1-0.4,0.1c-0.4,0.1-0.7,0.2-1.1,0.3c-0.2,0.1-0.4,0.1-0.6,0.2c-0.5,0.2-1.1,0.4-1.6,0.6c-0.4,0.2-0.8,0.3-1.2,0.4
					c-0.1,0-0.2,0.1-0.3,0.1c-0.3,0.1-0.7,0.2-1,0.2c-0.1,0-0.2,0-0.3,0.1c-0.4,0.1-0.7,0.1-1.1,0.2c-0.1,0-0.1,0-0.2,0
					c-0.4,0-0.9,0.1-1.3,0.1c0,0,0,0,0,0c-0.4,0-0.9,0-1.3-0.1c-0.3,0-0.6-0.1-0.8-0.1c-0.1,0-0.2,0-0.3-0.1c-0.3-0.1-0.7-0.1-1-0.2
					l-0.2,0c-2.8-0.7-5.4-2.2-7.5-4.4c-2.9-3.1-4.4-7.2-4.2-11.5c0.4-8.2,7.5-14.7,15.7-14.6l0.3,0c8.1,0.3,15.6-2.9,20.6-8.8
					C106.3,18.1,113,15,120,15c10.1,0,19.1,6.3,22.5,15.7c-8.9-2-15.2,3.5-15.5,3.8c-0.5,0.5-0.6,1.3-0.1,1.8c0.3,0.3,0.6,0.4,1,0.4
					c0.3,0,0.6-0.1,0.9-0.3c0.3-0.2,6.6-5.7,15.2-2.6c5.3,2.5,8.7,7.8,8.8,13.7C153,54.7,148,60.9,141.2,62.7z"/>
			</g>
			<path class="st3" d="M93.4,16.3c-2.5,3.9-7.4,6.1-12.2,6.1c-1.1,0-2.2,0.2-3.2,0.3c-1.1,0.2-2.1,0.3-3.2,0.7
				c-2.1,0.5-4.1,1.4-6,2.3c-3.8,2-7.1,4.9-9.6,8.5c-2.6,3.5-4.2,7.7-5.1,12.2c-0.3-4.5,0.8-9.3,3.3-13.3c1.1-2.1,2.7-3.9,4.4-5.6
				c1.7-1.6,3.7-3,5.7-4.2c4.2-2.2,9-3.3,13.7-3C85.5,20.6,90,19.4,93.4,16.3z"/>
			<path class="st3" d="M163.8,47.3c-0.4-4.1-1.7-8.1-3.8-11.6c-2.1-3.5-4.9-6.4-8.2-8.6l-0.3-0.2l-0.2-0.4
				c-1.7-3.8-3.9-7.3-6.7-10.3c-2.8-3-6.1-5.5-9.8-7.4c-3.7-1.9-7.7-3.2-11.8-3.8c-4.1-0.6-8.4-0.5-12.6,0.3c2-0.8,4.1-1.3,6.3-1.6
				c1.1-0.2,2.2-0.3,3.2-0.4c1.1,0,2.2-0.1,3.3,0c4.4,0.2,8.8,1.3,12.8,3.2c4,1.9,7.6,4.6,10.7,7.8c3,3.3,5.4,7.1,7,11.3l-0.4-0.6
				c3.5,2.5,6.4,6,8.2,9.9C163.3,38.8,164.1,43.1,163.8,47.3z"/>
		</g>
		<g>
			<text transform="matrix(1 0 0 1 6.5262 134.2111)" class="st4 st5 st6">Tasty</text>
			<path class="st4" d="M18.8,78.1c-2.1,0.5-4.2,1.1-6.1,2C10.8,81,9.2,82.4,8,83.9c-1.3,1.5-2.2,3.4-2.8,5.4
				c-0.6,2-0.8,4.1-0.8,6.3c-0.8-2.1-1.1-4.4-0.7-6.7c0.3-2.3,1.3-4.5,2.8-6.3c1.5-1.8,3.4-3.2,5.7-4C14.3,78,16.6,77.8,18.8,78.1z"
				/>
			<path class="st4" d="M38,95.3c0.4-0.4,0.9-0.9,1.6-1.4c1.6-1.1,3.2-1.4,4.1-1.5l0,0c4.1-0.1,5.6-0.3,5.6-0.3
				c1-0.2,1.9-0.4,2.5-0.5c1.1-0.3,4.1-1.4,7.2-5.9c-2.1,4.9-5,6.4-6.1,6.8c-1.9,0.8-4.8,1.2-7.4,1.6c-1,0.1-1.8,0.2-2.4,0.3
				C41.5,94.7,39.8,95,38,95.3z"/>
			<path class="st4" d="M162.1,105.6c-0.2,3-0.5,5.9-1,8.9c-0.4,2.9-1,5.9-1.5,8.8c-0.6,2.9-1.2,5.8-1.9,8.7
				c-0.7,2.9-1.5,5.7-2.5,8.6c0.2-3,0.5-5.9,1-8.9c0.4-2.9,1-5.9,1.5-8.8c0.6-2.9,1.2-5.8,1.9-8.7
				C160.3,111.2,161.1,108.4,162.1,105.6z"/>
		</g>
		<g>
			<path class="st0" d="M198.8,77.1c-2.8-0.2-5.6-0.1-8.3,0.4c-2.7,0.5-5.3,1.2-7.9,2.2c-2.5,1-5,2.2-7.4,3.6
				c-2.4,1.4-4.7,2.9-7.1,4.4c1.8-2.2,4-4.1,6.3-5.7c2.3-1.7,4.8-3.1,7.5-4.1c2.7-1,5.5-1.7,8.4-1.9
				C193.3,75.8,196.2,76.1,198.8,77.1z"/>
			<path class="st0" d="M278.5,116.9c1.7-3.1,3.3-6.1,4.2-9.4c0.5-1.6,0.7-3.2,0.8-4.9c0.1-1.7-0.2-3.3-0.6-5.1c1,1.5,1.8,3.2,1.9,5
				c0.2,1.8,0,3.7-0.4,5.5c-0.5,1.8-1.3,3.4-2.3,4.9C281.2,114.5,280,115.9,278.5,116.9z"/>
			<text transform="matrix(1 0 0 1 169.6557 134.2109)" class="st0 st5 st6">Bite</text>
		</g>
	</g>
</g>
</svg>
